HIERARCHY
ROOT mixamorig:Hips
{
	OFFSET 0.000000 104.274902 0.000000
	CHANNELS 6 Xposition Yposition Zposition Xrotation Yrotation Zrotation
	JOINT mixamorig:Spine
	{
		OFFSET 0.000000 10.181549 0.131524
		CHANNELS 6 Xposition Yposition Zposition Xrotation Yrotation Zrotation
		JOINT mixamorig:Spine1
		{
			OFFSET 0.000000 9.893990 -1.470706
			CHANNELS 3 Xrotation Yrotation Zrotation
			JOINT mixamorig:Spine2
			{
				OFFSET 0.000000 9.220787 -1.370636
				CHANNELS 3 Xrotation Yrotation Zrotation
				JOINT mixamorig:Neck
				{
					OFFSET 0.000000 16.740372 -2.049023
					CHANNELS 6 Xposition Yposition Zposition Xrotation Yrotation Zrotation
					JOINT mixamorig:Head
					{
						OFFSET 0.000000 9.617859 1.684975
						CHANNELS 6 Xposition Yposition Zposition Xrotation Yrotation Zrotation
						JOINT mixamorig:HeadTop_End
						{
							OFFSET 0.000000 22.037369 7.501070
							CHANNELS 6 Xposition Yposition Zposition Xrotation Yrotation Zrotation
							End Site
							{
								OFFSET 0.000000 23.106567 -2.828246
							}
						}
					}
				}
				JOINT mixamorig:RightShoulder
				{
					OFFSET -4.570000 11.014862 -2.160841
					CHANNELS 6 Xposition Yposition Zposition Xrotation Yrotation Zrotation
					JOINT mixamorig:RightArm
					{
						OFFSET -10.592869 -0.524796 -2.232105
						CHANNELS 3 Xrotation Yrotation Zrotation
						JOINT mixamorig:RightForeArm
						{
							OFFSET -27.841499 0.000000 0.000000
							CHANNELS 3 Xrotation Yrotation Zrotation
							JOINT mixamorig:RightHand
							{
								OFFSET -28.328800 0.000000 0.000000
								CHANNELS 3 Xrotation Yrotation Zrotation
								JOINT mixamorig:RightHandThumb1
								{
									OFFSET -2.464798 -1.573990 2.681910
									CHANNELS 6 Xposition Yposition Zposition Xrotation Yrotation Zrotation
									JOINT mixamorig:RightHandThumb2
									{
										OFFSET -3.244789 -1.873367 1.873378
										CHANNELS 3 Xrotation Yrotation Zrotation
										JOINT mixamorig:RightHandThumb3
										{
											OFFSET -2.646255 -1.527817 1.527816
											CHANNELS 3 Xrotation Yrotation Zrotation
											JOINT mixamorig:RightHandThumb4
											{
												OFFSET -1.994583 -1.151581 1.151575
												CHANNELS 3 Xrotation Yrotation Zrotation
												End Site
												{
													OFFSET -1.860176 -1.142715 1.365483
												}
											}
										}
									}
								}
								JOINT mixamorig:RightHandIndex1
								{
									OFFSET -9.108299 -0.517883 2.259803
									CHANNELS 6 Xposition Yposition Zposition Xrotation Yrotation Zrotation
									JOINT mixamorig:RightHandIndex2
									{
										OFFSET -3.700005 0.000000 0.000000
										CHANNELS 3 Xrotation Yrotation Zrotation
										JOINT mixamorig:RightHandIndex3
										{
											OFFSET -2.849998 0.000000 0.000000
											CHANNELS 3 Xrotation Yrotation Zrotation
											JOINT mixamorig:RightHandIndex4
											{
												OFFSET -2.772202 0.000000 0.000000
												CHANNELS 3 Xrotation Yrotation Zrotation
												End Site
												{
													OFFSET -2.772202 0.000000 -0.000484
												}
											}
										}
									}
								}
								JOINT mixamorig:RightHandMiddle1
								{
									OFFSET -9.532501 0.000000 0.000000
									CHANNELS 6 Xposition Yposition Zposition Xrotation Yrotation Zrotation
									JOINT mixamorig:RightHandMiddle2
									{
										OFFSET -3.699997 0.000000 0.000000
										CHANNELS 3 Xrotation Yrotation Zrotation
										JOINT mixamorig:RightHandMiddle3
										{
											OFFSET -2.950005 0.000000 0.000000
											CHANNELS 3 Xrotation Yrotation Zrotation
											JOINT mixamorig:RightHandMiddle4
											{
												OFFSET -2.946602 0.000000 0.000000
												CHANNELS 3 Xrotation Yrotation Zrotation
												End Site
												{
													OFFSET -2.946594 0.000000 -0.000982
												}
											}
										}
									}
								}
								JOINT mixamorig:RightHandRing1
								{
									OFFSET -9.103600 -0.043106 -1.865100
									CHANNELS 6 Xposition Yposition Zposition Xrotation Yrotation Zrotation
									JOINT mixamorig:RightHandRing2
									{
										OFFSET -3.379303 0.000000 0.000000
										CHANNELS 3 Xrotation Yrotation Zrotation
										JOINT mixamorig:RightHandRing3
										{
											OFFSET -2.889702 0.000000 0.000000
											CHANNELS 3 Xrotation Yrotation Zrotation
											JOINT mixamorig:RightHandRing4
											{
												OFFSET -2.638794 0.000000 0.000000
												CHANNELS 3 Xrotation Yrotation Zrotation
												End Site
												{
													OFFSET -2.638794 0.000000 0.004219
												}
											}
										}
									}
								}
								JOINT mixamorig:RightHandPinky1
								{
									OFFSET -8.076698 -0.486725 -3.806297
									CHANNELS 6 Xposition Yposition Zposition Xrotation Yrotation Zrotation
									JOINT mixamorig:RightHandPinky2
									{
										OFFSET -3.600006 0.000000 0.000000
										CHANNELS 3 Xrotation Yrotation Zrotation
										JOINT mixamorig:RightHandPinky3
										{
											OFFSET -2.099998 0.000000 0.000000
											CHANNELS 3 Xrotation Yrotation Zrotation
											JOINT mixamorig:RightHandPinky4
											{
												OFFSET -2.115799 0.000000 0.000000
												CHANNELS 3 Xrotation Yrotation Zrotation
												End Site
												{
													OFFSET -2.115799 0.000000 0.000174
												}
											}
										}
									}
								}
							}
						}
					}
				}
				JOINT mixamorig:LeftShoulder
				{
					OFFSET 4.570400 11.014664 -2.160817
					CHANNELS 6 Xposition Yposition Zposition Xrotation Yrotation Zrotation
					JOINT mixamorig:LeftArm
					{
						OFFSET 10.592365 -0.524597 -2.232113
						CHANNELS 3 Xrotation Yrotation Zrotation
						JOINT mixamorig:LeftForeArm
						{
							OFFSET 27.841499 0.000000 0.000000
							CHANNELS 3 Xrotation Yrotation Zrotation
							JOINT mixamorig:LeftHand
							{
								OFFSET 28.328804 0.000000 0.000000
								CHANNELS 3 Xrotation Yrotation Zrotation
								JOINT mixamorig:LeftHandThumb1
								{
									OFFSET 2.466095 -1.576202 2.681697
									CHANNELS 6 Xposition Yposition Zposition Xrotation Yrotation Zrotation
									JOINT mixamorig:LeftHandThumb2
									{
										OFFSET 3.243317 -1.872528 1.872528
										CHANNELS 3 Xrotation Yrotation Zrotation
										JOINT mixamorig:LeftHandThumb3
										{
											OFFSET 2.647881 -1.528763 1.528755
											CHANNELS 3 Xrotation Yrotation Zrotation
											JOINT mixamorig:LeftHandThumb4
											{
												OFFSET 1.998924 -1.154068 1.154079
												CHANNELS 3 Xrotation Yrotation Zrotation
												End Site
												{
													OFFSET 1.884041 -1.149155 1.337651
												}
											}
										}
									}
								}
								JOINT mixamorig:LeftHandIndex1
								{
									OFFSET 9.109299 -0.518005 2.259899
									CHANNELS 6 Xposition Yposition Zposition Xrotation Yrotation Zrotation
									JOINT mixamorig:LeftHandIndex2
									{
										OFFSET 3.699997 0.000000 0.000000
										CHANNELS 3 Xrotation Yrotation Zrotation
										JOINT mixamorig:LeftHandIndex3
										{
											OFFSET 2.849998 0.000000 0.000000
											CHANNELS 3 Xrotation Yrotation Zrotation
											JOINT mixamorig:LeftHandIndex4
											{
												OFFSET 2.774902 0.000000 0.000000
												CHANNELS 3 Xrotation Yrotation Zrotation
												End Site
												{
													OFFSET 2.774902 0.000000 -0.000072
												}
											}
										}
									}
								}
								JOINT mixamorig:LeftHandMiddle1
								{
									OFFSET 9.533394 0.000000 0.000000
									CHANNELS 6 Xposition Yposition Zposition Xrotation Yrotation Zrotation
									JOINT mixamorig:LeftHandMiddle2
									{
										OFFSET 3.700005 0.000000 0.000000
										CHANNELS 3 Xrotation Yrotation Zrotation
										JOINT mixamorig:LeftHandMiddle3
										{
											OFFSET 2.949997 0.000000 0.000000
											CHANNELS 3 Xrotation Yrotation Zrotation
											JOINT mixamorig:LeftHandMiddle4
											{
												OFFSET 2.952904 0.000000 0.000000
												CHANNELS 3 Xrotation Yrotation Zrotation
												End Site
												{
													OFFSET 2.952896 0.000000 0.000165
												}
											}
										}
									}
								}
								JOINT mixamorig:LeftHandRing1
								{
									OFFSET 9.104500 -0.042999 -1.865100
									CHANNELS 6 Xposition Yposition Zposition Xrotation Yrotation Zrotation
									JOINT mixamorig:LeftHandRing2
									{
										OFFSET 3.149994 0.000000 0.000000
										CHANNELS 3 Xrotation Yrotation Zrotation
										JOINT mixamorig:LeftHandRing3
										{
											OFFSET 2.950005 0.000000 0.000000
											CHANNELS 3 Xrotation Yrotation Zrotation
											JOINT mixamorig:LeftHandRing4
											{
												OFFSET 2.644295 0.000000 0.000000
												CHANNELS 3 Xrotation Yrotation Zrotation
												End Site
												{
													OFFSET 2.644302 0.000000 0.000083
												}
											}
										}
									}
								}
								JOINT mixamorig:LeftHandPinky1
								{
									OFFSET 8.077797 -0.486893 -3.806301
									CHANNELS 6 Xposition Yposition Zposition Xrotation Yrotation Zrotation
									JOINT mixamorig:LeftHandPinky2
									{
										OFFSET 3.599998 0.000000 0.000000
										CHANNELS 3 Xrotation Yrotation Zrotation
										JOINT mixamorig:LeftHandPinky3
										{
											OFFSET 2.099998 0.000000 0.000000
											CHANNELS 3 Xrotation Yrotation Zrotation
											JOINT mixamorig:LeftHandPinky4
											{
												OFFSET 2.125504 0.000000 0.000000
												CHANNELS 3 Xrotation Yrotation Zrotation
												End Site
												{
													OFFSET 2.125504 0.000000 -0.001254
												}
											}
										}
									}
								}
							}
						}
					}
				}
			}
		}
	}
	JOINT mixamorig:RightUpLeg
	{
		OFFSET -8.207800 -6.751701 -1.599544
		CHANNELS 6 Xposition Yposition Zposition Xrotation Yrotation Zrotation
		JOINT mixamorig:RightLeg
		{
			OFFSET 0.000000 -44.370155 0.345934
			CHANNELS 3 Xrotation Yrotation Zrotation
			JOINT mixamorig:RightFoot
			{
				OFFSET 0.000000 -44.423664 -3.043536
				CHANNELS 3 Xrotation Yrotation Zrotation
				JOINT mixamorig:RightToeBase
				{
					OFFSET 0.000000 -8.728685 10.710592
					CHANNELS 3 Xrotation Yrotation Zrotation
					JOINT mixamorig:RightToe_End
					{
						OFFSET 0.000000 -0.000664 9.278099
						CHANNELS 3 Xrotation Yrotation Zrotation
						End Site
						{
							OFFSET 0.000000 -0.000664 9.278101
						}
					}
				}
			}
		}
	}
	JOINT mixamorig:LeftUpLeg
	{
		OFFSET 8.207800 -6.751701 -1.599544
		CHANNELS 6 Xposition Yposition Zposition Xrotation Yrotation Zrotation
		JOINT mixamorig:LeftLeg
		{
			OFFSET 0.000000 -44.370049 0.346940
			CHANNELS 3 Xrotation Yrotation Zrotation
			JOINT mixamorig:LeftFoot
			{
				OFFSET 0.000000 -44.423603 -3.044389
				CHANNELS 3 Xrotation Yrotation Zrotation
				JOINT mixamorig:LeftToeBase
				{
					OFFSET 0.000000 -8.728686 10.710592
					CHANNELS 3 Xrotation Yrotation Zrotation
					JOINT mixamorig:LeftToe_End
					{
						OFFSET 0.000000 -0.000680 9.278100
						CHANNELS 3 Xrotation Yrotation Zrotation
						End Site
						{
							OFFSET 0.000000 -0.000680 9.278100
						}
					}
				}
			}
		}
	}
}
MOTION
Frames: 4
Frame Time: 0.033333
-3.018430 99.844887 -26.541679 -17.168823 -0.276233 -3.609231 -0.000000 10.181553 0.131523 0.397073 -0.388306 -1.579049 0.824842 -1.146854 -2.221236 0.822212 -1.150660 -2.220142 -0.000000 16.740356 -2.049031 20.449851 -0.150429 2.838761 0.000001 9.617864 1.684968 2.042148 -0.491787 1.422913 0.000000 22.037384 7.501071 0.000001 0.000000 0.000000 -4.570003 11.014846 -2.160841 5.380629 29.316596 -5.611236 -30.171514 29.472195 -20.537499 -0.000015 16.524796 0.000015 -71.484992 28.811124 16.170758 -2.464811 -1.573995 2.681904 -13.217285 -8.530298 1.577850 51.935802 -39.077380 12.918105 19.596484 -18.258299 0.794858 -0.000003 0.000000 -0.000000 -9.108331 -0.517886 2.259804 6.667868 -6.942577 87.681754 6.180046 -6.905815 83.637026 1.760558 -4.628650 41.631874 -0.000000 0.000006 -0.000003 -9.532501 0.000008 0.000004 6.667868 -6.942577 87.681754 6.180045 -6.905815 83.637026 1.760558 -4.628650 41.631868 0.000001 0.000003 -0.000002 -9.103611 -0.043113 -1.865101 6.667868 -6.942577 87.681754 6.180044 -6.905818 83.637032 1.760558 -4.628650 41.631868 -0.000001 0.000002 -0.000003 -8.076713 -0.486718 -3.806296 6.667867 -6.942582 87.681754 6.180045 -6.905833 83.637032 1.760569 -4.628656 41.631864 0.000002 0.000001 0.000001 4.570405 11.014630 -2.160817 8.792535 -27.285738 27.288617 -59.040695 -42.708343 -16.700644 -0.000001 -22.402717 -0.000006 -10.135873 3.573518 14.465586 2.466068 -1.576208 2.681702 -20.922070 21.165967 12.738964 32.522338 22.977079 -7.802361 12.023569 10.523228 -0.145982 -0.000003 0.000004 -0.000002 9.109269 -0.518009 2.259898 5.227156 6.680528 -76.059498 8.127500 6.768116 -100.459324 2.463258 5.281012 -49.988911 0.000001 0.000000 0.000002 9.533372 0.000006 -0.000004 5.225275 6.680063 -76.043310 8.129423 6.767771 -100.475552 2.463255 5.281013 -49.988925 0.000000 -0.000000 0.000001 9.104481 -0.042993 -1.865099 5.227156 6.680528 -76.059504 8.127501 6.768113 -100.459324 2.463261 5.281011 -49.988918 0.000001 -0.000001 0.000002 8.077792 -0.486905 -3.806302 9.192873 7.658190 -76.044232 8.121901 2.682402 -100.391234 2.463249 5.281010 -49.988939 0.000000 -0.000003 0.000000 -8.207802 -6.751703 -1.599545 8.004575 -7.765656 -1.671659 28.036132 -4.881003 -0.284292 -17.966297 -1.409200 5.551389 -0.000057 0.000000 0.000002 -0.000000 0.000000 -0.000000 8.207800 -6.751694 -1.599546 5.391713 11.841977 13.598214 30.055766 0.972915 0.120059 -18.809965 1.394933 -8.084298 -0.002653 0.000000 0.000001 -0.000000 0.000000 0.000000 
-2.682930 100.028725 -26.696692 -16.793297 0.043654 -3.318494 0.000000 10.181547 0.131525 0.230150 -0.308622 -1.501667 0.483628 -0.975607 -2.052894 0.481402 -0.978061 -2.052067 0.000000 16.740360 -2.049024 19.822724 -0.264047 1.983339 0.000000 9.617872 1.684983 -3.840627 -1.592150 1.010950 -0.000000 22.037384 7.501076 -0.000000 0.000001 0.000001 -4.570000 11.014860 -2.160844 4.838856 27.885776 -3.394230 -39.074976 21.023879 -12.206075 -0.000010 32.624095 0.000038 -55.516256 25.700943 6.562111 -2.464808 -1.573988 2.681911 -13.217287 -8.530298 1.577851 51.935802 -39.077380 12.918104 19.596489 -18.258291 0.794857 -0.000002 0.000003 0.000000 -9.108315 -0.517886 2.259804 6.667863 -6.942577 87.681754 6.180044 -6.905823 83.637032 1.760560 -4.628650 41.631868 -0.000000 -0.000000 0.000000 -9.532532 -0.000007 0.000003 6.667863 -6.942577 87.681754 6.180043 -6.905823 83.637032 1.760560 -4.628650 41.631871 -0.000001 -0.000001 0.000002 -9.103642 -0.043113 -1.865096 6.667863 -6.942577 87.681754 6.180044 -6.905823 83.637032 1.760560 -4.628650 41.631871 0.000002 -0.000002 0.000001 -8.076713 -0.486737 -3.806295 6.667867 -6.942582 87.681754 6.180044 -6.905834 83.637032 1.760570 -4.628656 41.631864 0.000000 0.000002 0.000005 4.570406 11.014668 -2.160818 7.868506 -25.843074 25.687908 -59.040381 -42.337214 -14.447592 -0.000001 -28.618793 0.000013 -9.078762 6.012499 25.763060 2.466091 -1.576221 2.681704 -20.922075 21.165971 12.738970 32.522342 22.977081 -7.802359 12.023567 10.523233 -0.145976 -0.000002 0.000000 -0.000002 9.109284 -0.518005 2.259900 5.227160 6.680528 -76.059498 8.127499 6.768111 -100.459324 2.463258 5.281010 -49.988918 -0.000001 0.000001 -0.000002 9.533418 -0.000001 0.000003 5.225280 6.680062 -76.043310 8.129425 6.767771 -100.475552 2.463256 5.281012 -49.988925 0.000000 0.000001 0.000002 9.104511 -0.042989 -1.865099 5.227160 6.680528 -76.059504 8.127499 6.768115 -100.459324 2.463260 5.281011 -49.988918 0.000000 0.000000 0.000000 8.077813 -0.486897 -3.806297 9.192874 7.658191 -76.044225 8.121903 2.682401 -100.391234 2.463251 5.281010 -49.988939 -0.000000 -0.000000 -0.000003 -8.207800 -6.751713 -1.599544 7.822080 -7.805223 -1.973161 27.343018 -5.595363 -0.320642 -17.401502 -1.434066 5.906192 -0.000058 -0.000002 0.000003 -0.000000 0.000000 0.000000 8.207801 -6.751700 -1.599541 5.287903 11.416638 12.978884 29.463011 1.080056 0.125156 -18.421165 1.325037 -7.824611 -0.002657 0.000002 0.000002 -0.000000 0.000002 0.000000 
-2.328060 100.198395 -26.949591 -15.975688 0.290877 -3.183734 0.000000 10.181562 0.131521 0.100588 -0.165226 -1.503844 0.215968 -0.685193 -1.998390 0.214432 -0.686507 -1.997864 -0.000000 16.740362 -2.049013 18.150464 -0.450872 1.644894 0.000000 9.617841 1.684988 -11.967327 -2.476958 0.331088 -0.000000 22.037354 7.501075 -0.000000 -0.000000 0.000000 -4.570000 11.014848 -2.160839 3.806845 23.989428 -1.061821 -48.923679 15.024321 2.498737 -0.000038 49.907175 0.000065 -43.396857 21.536404 0.053682 -2.464827 -1.574001 2.681908 -13.217287 -8.530299 1.577850 51.935799 -39.077373 12.918107 19.596494 -18.258294 0.794853 -0.000003 -0.000001 0.000000 -9.108303 -0.517880 2.259802 6.667865 -6.942577 87.681754 6.180042 -6.905821 83.637032 1.760558 -4.628649 41.631868 -0.000001 0.000001 0.000004 -9.532535 0.000014 0.000001 6.667865 -6.942577 87.681754 6.180042 -6.905821 83.637032 1.760558 -4.628649 41.631868 -0.000001 0.000000 0.000004 -9.103643 -0.043107 -1.865094 6.667865 -6.942577 87.681754 6.180042 -6.905818 83.637032 1.760558 -4.628650 41.631868 -0.000000 0.000001 0.000003 -8.076701 -0.486730 -3.806296 6.667867 -6.942581 87.681754 6.180044 -6.905834 83.637032 1.760568 -4.628656 41.631864 -0.000002 -0.000001 0.000001 4.570402 11.014647 -2.160814 6.640256 -24.035868 23.060817 -66.760885 -40.434535 -21.159079 -0.000000 -41.914071 -0.000006 -7.158831 10.058993 30.101081 2.466087 -1.576206 2.681710 -20.922065 21.165969 12.738970 32.522338 22.977076 -7.802356 12.023565 10.523228 -0.145984 -0.000001 0.000002 -0.000001 9.109267 -0.518008 2.259898 5.227160 6.680527 -76.059498 8.127501 6.768109 -100.459324 2.463257 5.281011 -49.988922 0.000002 0.000003 -0.000001 9.533401 -0.000002 0.000001 5.225277 6.680062 -76.043310 8.129421 6.767772 -100.475552 2.463256 5.281013 -49.988922 0.000002 -0.000002 -0.000004 9.104496 -0.043004 -1.865100 5.227160 6.680526 -76.059498 8.127500 6.768109 -100.459324 2.463257 5.281011 -49.988918 0.000001 0.000001 -0.000000 8.077796 -0.486900 -3.806299 9.192875 7.658189 -76.044225 8.121904 2.682402 -100.391234 2.463248 5.281010 -49.988932 0.000000 0.000001 -0.000003 -8.207798 -6.751707 -1.599548 7.067130 -7.898514 -2.165341 26.710145 -6.213523 -0.348716 -16.751527 -1.484617 6.196440 -0.000057 0.000002 0.000002 -0.000000 -0.000000 -0.000000 8.207799 -6.751704 -1.599546 4.512884 10.981247 12.511674 29.088113 1.284858 0.135225 -18.040271 1.270269 -7.569392 -0.002652 -0.000002 0.000001 -0.000000 -0.000000 0.000000 
-2.007682 100.253716 -27.272284 -14.996234 0.730116 -3.035340 -0.000000 10.181551 0.131524 0.032523 -0.001266 -1.581575 0.073101 -0.373318 -2.035692 0.072274 -0.373986 -2.035394 0.000003 16.740345 -2.049023 15.803249 -0.699200 1.958122 -0.000000 9.617826 1.684979 -21.579209 -3.096785 -0.696119 0.000001 22.037354 7.501077 0.000000 -0.000000 -0.000000 -4.569999 11.014820 -2.160841 2.948686 19.513036 1.153804 -59.100356 8.300442 16.073160 -0.000090 66.423617 0.000127 -33.860362 17.195061 -4.146610 -2.464803 -1.573999 2.681901 -13.217288 -8.530298 1.577846 51.935799 -39.077380 12.918103 19.596489 -18.258293 0.794863 -0.000000 -0.000001 0.000000 -9.108315 -0.517889 2.259799 6.667862 -6.942576 87.681754 6.180044 -6.905824 83.637032 1.760556 -4.628650 41.631868 -0.000002 0.000000 -0.000001 -9.532532 0.000005 -0.000001 6.667862 -6.942576 87.681754 6.180043 -6.905824 83.637032 1.760556 -4.628650 41.631868 -0.000001 -0.000001 0.000001 -9.103641 -0.043100 -1.865097 6.667865 -6.942577 87.681754 6.180044 -6.905821 83.637032 1.760556 -4.628650 41.631868 -0.000000 -0.000000 0.000003 -8.076726 -0.486739 -3.806301 6.667866 -6.942582 87.681754 6.180044 -6.905832 83.637032 1.760568 -4.628656 41.631868 0.000001 0.000000 0.000003 4.570402 11.014651 -2.160814 5.549594 -22.315194 20.092745 -76.851533 -36.327457 -29.843624 -0.000000 -57.667786 -0.000005 -4.131111 13.922463 30.227224 2.466089 -1.576198 2.681706 -20.922072 21.165967 12.738968 32.522338 22.977076 -7.802354 12.023570 10.523233 -0.145985 -0.000001 -0.000004 -0.000002 9.109284 -0.518009 2.259900 5.227154 6.680526 -76.059498 8.127499 6.768109 -100.459324 2.463256 5.281010 -49.988918 0.000000 -0.000000 -0.000001 9.533399 0.000002 -0.000001 5.225277 6.680064 -76.043310 8.129423 6.767770 -100.475552 2.463254 5.281013 -49.988922 0.000003 0.000004 0.000004 9.104481 -0.043005 -1.865100 5.227154 6.680526 -76.059504 8.127500 6.768108 -100.459324 2.463256 5.281011 -49.988915 0.000002 -0.000002 -0.000004 8.077794 -0.486902 -3.806299 9.192870 7.658189 -76.044225 8.121903 2.682398 -100.391234 2.463248 5.281010 -49.988935 -0.000002 -0.000005 -0.000003 -8.207800 -6.751713 -1.599544 5.867574 -7.946093 -2.316602 26.619824 -7.024114 -0.387288 -16.336423 -1.583375 6.524019 -0.000056 -0.000002 0.000002 -0.000000 0.000000 0.000000 8.207801 -6.751700 -1.599544 3.156422 10.632113 12.231065 29.263908 1.087572 0.123601 -17.858972 1.227017 -7.217376 -0.002649 -0.000000 0.000001 -0.000000 -0.000000 -0.000000 
